<svg width="84" height="32" viewBox="0 0 84 32" fill="none" xmlns="http://www.w3.org/2000/svg">
<path d="M4.95 17.4688V20.9448H9.46V20.0208H10.384V18.4148H9.46V17.4688H4.95ZM4.95 9.76884V13.2228H9.306V12.2988H10.23V10.7148H9.306V9.76884H4.95ZM14.454 15.9508V17.1828H15.532V21.8688H14.454V23.0568H13.31V24.2448H12.056V25.2568H1.144V24.1128H0V6.62284H1.144V5.47884H12.056V6.49084H13.244V7.65684H14.344V8.86684H15.356V13.5528H14.344V14.7848H13.222V15.9508H14.454Z" fill="#222222"/>
<path d="M26.2463 18.8548H22.7703V19.6028H21.9783V20.6808H22.7703V21.4288H26.2463V18.8548ZM30.9983 11.5948V24.2888H30.1403V25.2568H19.8883V24.3988H18.8983V23.4528H17.9523V22.3968H17.0943V17.9748H17.9523V16.9188H18.8983V15.9728H19.8883V15.1148H26.2463V13.7288H19.0743V12.7608H18.1723V10.4508H19.0743V9.50484H29.0183V10.4728H29.9863V11.5948H30.9983Z" fill="#222222"/>
<path d="M39.2081 17.1168H37.9981V24.3768H37.1181V25.2568H33.6421V24.3768H32.7621V10.3188H33.6421V9.50484H37.0521V10.3188H37.9321V11.6388H38.7241V10.3188H39.5821V9.50484H43.0361V10.3628H43.8941V13.3108H42.9701V14.2128H41.6941V15.1588H40.4401V16.1048H39.2081V17.1168Z" fill="#222222"/>
<path d="M50.7922 20.8348H53.8062V15.1588H50.7922V16.0608H49.9562V19.9328H50.7922V20.8348ZM57.7662 24.3768V25.2568H47.8442V24.2448H46.8322V23.1668H45.8862V21.9568H44.9842V14.0368H45.8862V12.8268H46.8322V11.7488H47.8442V10.7368H53.6742V6.09484H54.6202V5.21484H57.7222V6.09484H58.6462V24.3768H57.7662Z" fill="#222222"/>
<path d="M61.424 25.2568V24.3768H60.544V12.2328H61.424V11.3528H64.68V12.2328H65.582V24.3768H64.68V25.2568H61.424ZM64.724 6.09484H65.604V9.21884H64.724V10.0988H61.402V9.21884H60.522V6.09484H61.402V5.21484H64.724V6.09484Z" fill="#222222"/>
<path d="M70.6924 24.3548H69.5484V23.3868H68.4704V22.3308H67.4584V12.4308H68.4704V11.3748H69.5484V10.4288H70.6924V9.50484H79.4924V10.4508H80.4164V13.1128H79.4924V13.9708H73.5524V14.8728H72.4744V19.8888H73.5524V20.7908H79.4484V21.6928H80.4164V24.3988H79.4484V25.2568H70.6924V24.3548Z" fill="#222222"/>
</svg>
