<svg width="32" height="32" viewBox="0 0 32 32" fill="none" xmlns="http://www.w3.org/2000/svg">
<path d="M9.3973 17.8747L14.1106 22.5893L12.2266 24.4747L14.1133 26.3613L12.228 28.2467L8.92796 24.9467L5.15596 28.7187L3.27063 26.8333L7.04263 23.06L3.74263 19.7613L5.62796 17.876L7.5133 19.76L9.3973 17.8747ZM3.99996 4L8.72796 4.004L24.484 19.7613L26.3706 17.876L28.2573 19.7613L24.9573 23.0613L28.728 26.8333L26.8426 28.7187L23.0706 24.9467L19.772 28.2467L17.8853 26.3613L19.7706 24.4747L4.00263 8.708L3.99996 4ZM23.276 4L28 4.004L28.0026 8.70133L22.5986 14.104L17.884 9.39067L23.276 4Z" fill="#222222"/>
</svg>
